<svg xmlns="http://www.w3.org/2000/svg" viewBox="0 0 332.98 99.46"><defs><style>.cls-1{fill:#fff;}</style></defs><title>2</title><g id="Lager_2" data-name="Lager 2"><g id="Lager_1-2" data-name="Lager 1"><polygon class="cls-1" points="13.84 87.18 2.82 87.18 2.82 79.41 0 79.41 0 99.18 2.82 99.18 2.82 89.86 13.84 89.86 13.84 99.18 16.66 99.18 16.66 79.41 13.84 79.41 13.84 87.18"/><path class="cls-1" d="M33.84,79.13A10.17,10.17,0,1,0,43.73,89.3,9.86,9.86,0,0,0,33.84,79.13Zm0,17.65c-4,0-7.06-3.19-7.06-7.49s3-7.48,7.06-7.48S40.9,85,40.9,89.3,37.88,96.78,33.84,96.78Z"/><path class="cls-1" d="M59.86,89.21c-2.54-1.7-6.75-2.23-6.75-4.75,0-1.72,1.64-2.66,3.28-2.66a5.44,5.44,0,0,1,3.53,1.36l1.67-2.06a8.12,8.12,0,0,0-5.31-2c-3.45,0-6,2.37-6,5.25a5,5,0,0,0,2.51,4.35c2.63,1.72,6.81,2.06,6.81,5.08a3.18,3.18,0,0,1-3.45,3,6.3,6.3,0,0,1-4.83-2.54l-1.95,1.92a8.87,8.87,0,0,0,6.92,3.3c3.45,0,6.13-2.26,6.13-5.73A5.22,5.22,0,0,0,59.86,89.21Z"/><path class="cls-1" d="M81.61,80.71a6,6,0,0,0-4.12-1.3H70V99.18h2.82V90.43h4.66a6,6,0,0,0,4.12-1.3,5.52,5.52,0,0,0,0-8.42Zm-1.67,6.16a3.27,3.27,0,0,1-2.6.88H72.83V82.09h4.52a3.27,3.27,0,0,1,2.6.88,2.8,2.8,0,0,1,0,3.9Z"/><rect class="cls-1" x="90.74" y="79.41" width="2.82" height="19.77"/><polygon class="cls-1" points="100.77 82.09 106.13 82.09 106.13 99.18 108.96 99.18 108.96 82.09 114.33 82.09 114.33 79.41 100.77 79.41 100.77 82.09"/><path class="cls-1" d="M125.4,79.41l-8.19,19.77h2.94l2.06-5.08h8.33l2.09,5.08h2.94l-8.19-19.77Zm-2.06,12,3-7.34,3.05,7.34Z"/><polygon class="cls-1" points="144.98 79.41 142.15 79.41 142.15 99.18 153.73 99.18 153.73 96.5 144.98 96.5 144.98 79.41"/><rect class="cls-1" x="160.85" y="79.41" width="2.82" height="19.77"/><polygon class="cls-1" points="170.88 82.09 176.25 82.09 176.25 99.18 179.07 99.18 179.07 82.09 184.44 82.09 184.44 79.41 170.88 79.41 170.88 82.09"/><polygon class="cls-1" points="197.58 87.35 192.55 79.41 189.39 79.41 196.17 90.14 196.17 99.18 198.99 99.18 198.99 90.14 205.77 79.41 202.6 79.41 197.58 87.35"/><path class="cls-1" d="M230.06,89.86h5.65v5.08a6.88,6.88,0,0,1-4.86,1.84,7.49,7.49,0,0,1-.25-15A7.5,7.5,0,0,1,235.94,84l1.89-1.86a10.11,10.11,0,1,0-7,17.29,10.05,10.05,0,0,0,7.68-3.67V87.18h-8.47Z"/><path class="cls-1" d="M258,88.7a5.22,5.22,0,0,0,0-8.13,5.67,5.67,0,0,0-3.84-1.16h-6.92V99.18H250V89.86h2.26l7,9.32h3.42l-7.09-9.43A4.74,4.74,0,0,0,258,88.7ZM250,87.18V82.09h4a3.07,3.07,0,0,1,2.37.73,2.59,2.59,0,0,1,0,3.62,3.07,3.07,0,0,1-2.37.73Z"/><path class="cls-1" d="M276.73,79.13a10.17,10.17,0,1,0,9.88,10.17A9.86,9.86,0,0,0,276.73,79.13Zm0,17.65c-4,0-7.06-3.19-7.06-7.49s3-7.48,7.06-7.48,7.06,3.22,7.06,7.48S280.77,96.78,276.73,96.78Z"/><path class="cls-1" d="M307.55,91.13a5.41,5.41,0,0,1-1.24,3.9,5.73,5.73,0,0,1-8.25,0,5.41,5.41,0,0,1-1.24-3.9V79.41H294V91a8.21,8.21,0,0,0,2.06,5.87,8.53,8.53,0,0,0,12.26,0A8.22,8.22,0,0,0,310.38,91V79.41h-2.82Z"/><path class="cls-1" d="M331,80.71a6,6,0,0,0-4.12-1.3h-7.49V99.18h2.82V90.43h4.66a6,6,0,0,0,4.12-1.3,5.52,5.52,0,0,0,0-8.42Zm-1.67,6.16a3.28,3.28,0,0,1-2.6.88h-4.52V82.09h4.52a3.28,3.28,0,0,1,2.6.88,2.8,2.8,0,0,1,0,3.9Z"/><path class="cls-1" d="M216.84,10.89A4.85,4.85,0,0,0,221.65,6a4.27,4.27,0,0,0-4.36-4.36,4.82,4.82,0,0,0-4.73,4.81A4.27,4.27,0,0,0,216.84,10.89Z"/><polygon class="cls-1" points="124.1 55.04 124.1 10.66 130.79 8.63 130.79 6.76 113.29 6.76 113.29 8.63 120.72 10.66 120.72 41.75 119.9 41.75 100.45 14.42 94.89 6.76 79.72 6.76 79.72 8.79 86.41 10.74 86.41 50.69 79.72 52.71 79.72 54.59 97.22 54.59 97.22 52.71 89.79 50.69 89.79 13.14 90.69 13.14 115.39 47.38 120.87 55.04 124.1 55.04"/><polygon class="cls-1" points="225.41 53.02 220.38 51.66 220.38 19.9 220.07 19.67 209.04 22.38 209.04 23.65 214.29 26.06 214.29 51.66 208.96 53.02 208.96 54.59 225.41 54.59 225.41 53.02"/><path class="cls-1" d="M255.52,44.45c0-5.26-3.15-7.73-11.34-10.81-5.78-2.18-7.81-3.75-7.81-6.68s2.63-5.18,6-5.18c4.21,0,6.76,1.8,9.69,7.81h1.46V21.25a29.94,29.94,0,0,0-9.8-1.58c-7.21,0-12,4.66-12,10.29,0,5.41,4,7.74,10.36,10.14s8.41,4.13,8.41,7.06c0,4.05-2.63,6.23-6.91,6.23-5,0-8.11-2.47-10.59-9.38h-1.8v9.45a29.46,29.46,0,0,0,11.11,2C249.89,55.49,255.52,51.21,255.52,44.45Z"/><path class="cls-1" d="M204.83,36.87c0-11.12-6.91-17.12-13.59-17.12-4.51,0-7.21,1.52-10.66,4.68l-.68-.15V.53L179.22,0,168,2.93V4.28l5.86,2.47V53a29.3,29.3,0,0,0,11.79,2.78A18.9,18.9,0,0,0,204.83,36.87ZM188.76,53.24a13.23,13.23,0,0,1-8.86-3.61V26.58a13.26,13.26,0,0,1,7-2.18c7.28,0,11.64,5.18,11.64,14.72C198.52,48.81,194,53.24,188.76,53.24Z"/><path class="cls-1" d="M150.06,19.75c-10.74,0-17.27,8.41-17.27,18,0,10.28,5.86,18,16.22,18,10.81,0,17.2-8.63,17.2-18.25C166.2,27.26,160.57,19.75,150.06,19.75Zm-.3,33.79c-5.26,0-10-4.58-10-15.54,0-11.26,4.28-16,9.46-16,5.63,0,10,4.58,10,15.55C159.22,48.81,155.31,53.54,149.76,53.54Z"/></g></g></svg>