<?xml version="1.0" encoding="utf-8"?>
<!-- Generator: Adobe Illustrator 25.2.0, SVG Export Plug-In . SVG Version: 6.00 Build 0)  -->
<svg version="1.1" id="Lager_1" xmlns="http://www.w3.org/2000/svg" xmlns:xlink="http://www.w3.org/1999/xlink" x="0px" y="0px"
	 viewBox="0 0 367 99.6" style="enable-background:new 0 0 367 99.6;" xml:space="preserve">
<path d="M78.1,96.9c-4.1,0.1-7.6-3.2-7.6-7.4s3.2-7.6,7.4-7.6c2,0,3.9,0.8,5.3,2.2l1.9-1.9c-4-3.9-10.4-3.9-14.3,0.1
	c-3.9,4-3.9,10.4,0.1,14.3c1.9,1.9,4.5,3,7.2,2.9c3,0,5.8-1.4,7.7-3.7l-2-1.8C82.4,95.8,80.3,96.8,78.1,96.9z"/>
<path d="M101.4,79.2C95.8,79,91.1,83.5,91,89.1c-0.2,5.6,4.3,10.3,9.9,10.4c5.6,0.2,10.3-4.3,10.4-9.9c0-0.1,0-0.2,0-0.3
	c0.2-5.4-4.1-10-9.5-10.2C101.7,79.2,101.6,79.2,101.4,79.2z M101.4,96.8c-4,0-7.1-3.2-7.1-7.5s3-7.5,7.1-7.5s7.1,3.2,7.1,7.5
	S105.5,96.9,101.4,96.8L101.4,96.8z"/>
<path d="M130.2,80.8c-1.2-0.9-2.6-1.4-4.1-1.3h-7.5v19.8h2.8v-8.8h4.7c1.5,0.1,3-0.4,4.1-1.3c2.3-2,2.6-5.5,0.6-7.8
	C130.7,81.2,130.5,81,130.2,80.8z M128.6,86.9c-0.7,0.7-1.6,1-2.6,0.9h-4.5v-5.6h4.5c1-0.1,1.9,0.2,2.6,0.9
	C129.6,84.1,129.6,85.8,128.6,86.9L128.6,86.9z"/>
<polygon points="142.1,89.9 148.6,89.9 148.6,87.2 142.1,87.2 142.1,82.2 150.6,82.2 150.6,79.5 139.3,79.5 139.3,99.2 150.9,99.2 
	150.9,96.6 142.1,96.6 "/>
<polygon points="172.7,94 160.9,79.5 158.9,79.5 158.9,99.2 161.7,99.2 161.7,84.7 173.6,99.2 175.5,99.2 175.5,79.5 172.7,79.5 "/>
<polygon points="198.7,87.2 187.7,87.2 187.7,79.5 184.8,79.5 184.8,99.2 187.7,99.2 187.7,89.9 198.7,89.9 198.7,99.2 201.5,99.2 
	201.5,79.5 198.7,79.5 "/>
<path d="M216.4,79.5l-8.2,19.8h2.9l2.1-5.1h8.3l2.1,5.1h2.9l-8.2-19.8H216.4z M214.3,91.5l3-7.3l3,7.3H214.3z"/>
<path d="M240.1,89.9h5.6V95c-1.3,1.2-3.1,1.9-4.9,1.8c-4.1,0.1-7.6-3.2-7.6-7.4s3.2-7.6,7.4-7.6c2,0,3.9,0.8,5.3,2.2l1.9-1.9
	c-4-3.9-10.4-3.9-14.3,0.1c-3.9,4-3.9,10.4,0.1,14.3c1.9,1.9,4.5,3,7.2,2.9c3,0,5.8-1.3,7.7-3.6v-8.6h-8.5V89.9z"/>
<polygon points="259.9,89.9 266.4,89.9 266.4,87.2 259.9,87.2 259.9,82.2 268.4,82.2 268.4,79.5 257.1,79.5 257.1,99.2 268.7,99.2 
	268.7,96.6 259.9,96.6 "/>
<polygon points="290.5,94 278.7,79.5 276.7,79.5 276.7,99.2 279.5,99.2 279.5,84.7 291.4,99.2 293.4,99.2 293.4,79.5 290.5,79.5 "/>
<path d="M164.4,33.7c-5.8-2.2-7.8-3.8-7.8-6.7s2.6-5.2,6-5.2c4.2,0,6.8,1.8,9.7,7.8h1.5v-8.3c-3.2-1.1-6.5-1.6-9.8-1.6
	c-7.2,0-12,4.7-12,10.3c0,5.4,4,7.7,10.4,10.1s8.4,4.1,8.4,7.1c0,4.1-2.6,6.2-6.9,6.2c-5,0-8.1-2.5-10.6-9.4h-1.8v9.4
	c3.5,1.4,7.3,2.1,11.1,2c7.6,0,13.2-4.3,13.2-11C175.8,39.3,172.6,36.8,164.4,33.7z"/>
<polygon points="362,52.3 362,0.5 361.3,0 350.1,2.9 350.1,4.3 355.9,6.8 355.9,52.3 350.6,53.7 350.6,55.2 367,55.2 367,53.7 "/>
<polygon points="33.6,8.7 41,10.7 41,41.8 40.2,41.8 20.7,14.5 15.2,6.8 0,6.8 0,8.8 6.7,10.8 6.7,50.8 0,52.8 0,54.6 17.5,54.6 
	17.5,52.8 10.1,50.8 10.1,13.2 11,13.2 35.7,47.4 41.2,55.1 44.4,55.1 44.4,10.7 51.1,8.7 51.1,6.8 33.6,6.8 "/>
<polygon points="145.7,53.1 140.6,51.7 140.6,20 140.4,19.7 129.3,22.4 129.3,23.7 134.6,26.1 134.6,51.7 129.2,53.1 129.2,54.6 
	145.7,54.6 "/>
<path d="M137.1,10.9c2.7,0,4.8-2.2,4.8-4.9c0.1-2.4-1.8-4.3-4.2-4.4c-0.1,0-0.1,0-0.2,0c-2.6,0-4.7,2.2-4.7,4.8
	c-0.1,2.4,1.8,4.3,4.1,4.4C137,10.9,137.1,11,137.1,10.9z"/>
<path d="M345.9,35.9c0-8.3-4.5-16.1-13.8-16.1s-16.5,8-16.5,18.5c0,10.4,6.7,17.5,16.3,17.5c4.9,0,9.1-2.3,13.7-6.8l-0.6-1.6
	c-4.2,2.5-6.8,3.5-10.4,3.5c-8.9,0-12.8-5.8-12.5-15.2H345.9z M331.4,22.1c4.8,0,7.3,3.8,7.6,11.1l-16.8,0.5
	C322.6,26.9,326.3,22.1,331.4,22.1L331.4,22.1z"/>
<polygon points="226.7,8.7 234.5,10.1 234.5,28.3 208.2,28.3 208.2,10.1 216,8.7 216,6.8 193,6.8 193,8.7 201.1,10.1 201.1,51.4 
	193,52.8 193,54.6 216,54.6 216,52.8 208.2,51.4 208.2,31.4 234.5,31.4 234.5,51.4 226.7,52.8 226.7,54.6 249.7,54.6 249.7,52.8 
	241.5,51.4 241.5,10.1 249.7,8.7 249.7,6.8 226.7,6.8 "/>
<path d="M70.3,19.8c-10.7,0-17.3,8.4-17.3,18c0,10.3,5.9,18,16.2,18c10.8,0,17.2-8.6,17.2-18.2C86.5,27.3,80.8,19.8,70.3,19.8z
	 M70,53.6c-5.3,0-10-4.6-10-15.5c0-11.3,4.3-16,9.5-16c5.6,0,10,4.6,10,15.6C79.5,48.9,75.6,53.6,70,53.6L70,53.6z"/>
<path d="M284.6,37.6c0-10.3-5.6-17.8-16.1-17.8c-10.7,0-17.3,8.4-17.3,18c0,10.3,5.9,18,16.2,18C278.2,55.9,284.6,47.2,284.6,37.6z
	 M258.2,38.1c0-11.3,4.3-16,9.5-16c5.6,0,10,4.6,10,15.6c0,11.3-3.9,16-9.5,16C263,53.6,258.2,49,258.2,38.1z"/>
<path d="M94.1,53.1c3.7,1.7,7.7,2.7,11.8,2.8c10.4,0.2,19-8.1,19.2-18.6c0-0.1,0-0.3,0-0.4c0-11.1-6.9-17.1-13.6-17.1
	c-4.5,0-7.2,1.5-10.7,4.7l-0.7-0.2V0.6l-0.7-0.5L88.2,3v1.3l5.9,2.5L94.1,53.1z M100.2,26.7c2.1-1.4,4.5-2.1,7-2.2
	c7.3,0,11.6,5.2,11.6,14.7c0,9.7-4.5,14.1-9.8,14.1c-3.3-0.1-6.5-1.3-8.9-3.6L100.2,26.7z"/>
<path d="M302.1,50c-1.6-1-2-2.8-2-5.5V24.4h11.6v-3.8h-11.5v-9.7h-2l-3.6,9.4l-6.3,2.4v1.6h5.8v22.2c0,5.8,2.5,8.6,7.4,8.6
	c3.5,0,7.1-1.4,10.4-3.5v-1.4c-1.7,0.3-3.3,0.4-5,0.4C304.3,50.9,303.1,50.7,302.1,50z"/>
</svg>
